<svg id="Layer_1" data-name="Layer 1" xmlns="http://www.w3.org/2000/svg" viewBox="0 0 27.75 7.14"><defs><style>.cls-1,.cls-2{fill:#91707b;}.cls-2{font-size:3.25px;font-family:Montserrat-Bold, Montserrat;font-weight:700;}.cls-3{fill:none;stroke:#91707b;stroke-linecap:round;stroke-linejoin:round;stroke-width:0.13px;}</style></defs><path class="cls-1" d="M379.59,196.21v-.52s0,0,0,0H380s0,0,0,0v-.1s0,0,0,0h.11s0,0,0,0v.11s0,0,0,0h.1s0,0,0,0,0-.07,0-.11,0,0,0,0h.11s0,0,0,0v.11s0,0,0,0h.26s0,0,0,0v-.1s0,0,0,0h.72s0,0,0,0v.09a0,0,0,0,1,0,0H381a0,0,0,0,0,0,0v.09s0,0,0,0h-.25s0,0,0,0a.34.34,0,0,0,0,.1,0,0,0,0,1,0,0h-.1a0,0,0,0,0,0,0v.26s0,0,0,0h.11s0,0,0,0v-.11s0,0,0,0h.11s0,0,0,0v.25s0,0,0,0H381a0,0,0,0,1,0,0v.25s0,0,0,0h.1s0,0,0,0v-.26a0,0,0,0,1,0,0h.1s0,0,0,0v-.11a0,0,0,0,1,0,0h.1s0,0,0,0v-.1a0,0,0,0,0,0,0h-.1s0,0,0,0V196s0,0,0,0h-.11s0,0,0,0v.26a0,0,0,0,1,0,0H381s0,0,0,0V196s0,0,0,0h.1a0,0,0,0,0,0,0v-.1a0,0,0,0,1,0,0h.11a0,0,0,0,1,0,0v.1s0,0,0,0h.1a0,0,0,0,0,0,0v-.1s0,0,0,0h.11a0,0,0,0,1,0,0v.88s0,0,0,0h1s0,0,0,0V197a0,0,0,0,0,0,0h.1a0,0,0,0,1,0,0v.27l0,0h-.1s0,0,0,0v.1a0,0,0,0,1,0,0h-.1s0,0,0,0v.11s0,0,0,0h.26a0,0,0,0,1,0,0v.1s0,0,0,0h-.41s0,0,0,0v.24s0,0,0,0h.09s0,0,0,0V198s0,0,0,0a.24.24,0,0,0,.12,0s0,0,0,0v.11s0,0,0,0h.1a0,0,0,0,1,0,0v.11s0,0,0,0h-.11a0,0,0,0,0,0,0v.57a0,0,0,0,0,0,0h.1s0,0,0,0v.12s0,0,0,0h-.12s0,0,0,0a.41.41,0,0,1,0-.11s0,0,0,0h-.11s0,0,0,0v.26s0,0,0,0h.26a0,0,0,0,1,0,0v.11s0,0,0,0h-.11s0,0,0,0v.11s0,0,0,0h.1s0,0,0,0v.11s0,0,0,0h-.1a0,0,0,0,0,0,0v.1s0,0,0,0h-.27a0,0,0,0,1,0,0v-.1s0,0,0,0h-.27s0,0,0,0v-.1s0,0,0,0H382a0,0,0,0,1,0,0v-.11s0,0,0,0h-.11s0,0,0,0v.11a0,0,0,0,1,0,0h-.11a0,0,0,0,1,0,0v-.1s0,0,0,0h-.09s0,0,0,0v.09s0,0,0,0h-.1a0,0,0,0,1,0,0v-.1s0,0,0,0h-.1s0,0,0,0V200s0,0,0,0h-.25a0,0,0,0,1,0,0v-.11s0,0,0,0H381s0,0,0,0a.41.41,0,0,1,0-.11s0,0,0,0h-.1s0,0,0,0v-.09s0,0,0,0h-.09a0,0,0,0,1,0,0v-.26a0,0,0,0,0,0,0h-.09a0,0,0,0,0,0,0v.25s0,0,0,0h-.09s0,0,0,0v.1a0,0,0,0,0,0,0h.25s0,0,0,0a.27.27,0,0,0,0,.09,0,0,0,0,1,0,0h-.1a0,0,0,0,0,0,0v.1a0,0,0,0,1,0,0h-.27s0,0,0,0V200s0,0,0,0h-.09a0,0,0,0,1,0,0v-.1a0,0,0,0,0,0,0h-.25s0,0,0,0a2.09,2.09,0,0,1,0-.25s0,0,0,0h-.09a0,0,0,0,1,0,0v-.27s0,0,0,0h.1s0,0,0,0V199s0,0,0,0h.11s0,0,0,0v-.11s0,0,0,0H380l0,0v-.11s0,0,0,0a.24.24,0,0,0,.12,0s0,0,0,0v.11s0,0,0,0h.1a0,0,0,0,0,0,0,2.09,2.09,0,0,1,0-.25s0,0,0,0h.1s0,0,0,0v.1a0,0,0,0,0,0,0,1,1,0,0,1,.25,0,0,0,0,0,0,0,0v-.1a0,0,0,0,0,0,0h-.11s0,0,0,0v-.11a0,0,0,0,0,0,0h-.41s0,0,0,0v-.1s0,0,0,0h-.09s0,0,0,0V198s0,0,0,0h-.26a0,0,0,0,0,0,0v.1a0,0,0,0,1,0,0H379s0,0,0,0v.1a0,0,0,0,1,0,0h-.11a0,0,0,0,1,0,0v-.43s0,0,0,0h.11a0,0,0,0,0,0,0v-.25s0,0,0,0h-.1a0,0,0,0,1,0,0v-.11a0,0,0,0,1,0,0h.11a0,0,0,0,1,0,0v.11s0,0,0,0h.1s0,0,0,0v-.11s0,0,0,0h.26s0,0,0,0v-.09a0,0,0,0,0,0,0h-.1a0,0,0,0,1,0,0v-.11s0,0,0,0h-.1s0,0,0,0v.11s0,0,0,0a1.22,1.22,0,0,0-.27,0,0,0,0,0,1,0,0v-.1s0,0,0,0h-.25s0,0,0,0v-.1s0,0,0,0h-.11a0,0,0,0,1,0,0v-.12s0,0,0,0h.12s0,0,0,0v.11s0,0,0,0h.25s0,0,0,0V197s0,0,0,0h.09a0,0,0,0,0,0,0v-.25s0,0,0,0h.42s0,0,0,0v.1s0,0,0,0h.26s0,0,0,0a.34.34,0,0,1,0-.1,0,0,0,0,0,0,0h-.1s0,0,0,0Zm.94.55v-.28s0,0,0,0h-.09s0,0,0,0v.25s0,0,0,0h-.1a0,0,0,0,0,0,0v.1s0,0,0,0h.1s0,0,0,0v.11s0,0,0,0h-.1s0,0,0,0v.1s0,0,0,0a3.09,3.09,0,0,0-.43,0s0,0,0,0a.33.33,0,0,1,0-.1s0,0,0,0h-.09s0,0,0,0v.25s0,0,0,0h-.1s0,0,0,0v.1s0,0,0,0h.25a0,0,0,0,1,0,0v.25s0,0,0,0h.08s0,0,0,0v-.41a0,0,0,0,1,0,0H380a0,0,0,0,1,0,0v.11s0,0,0,0h.11s0,0,0,0v.12s0,0,0,0h-.1s0,0,0,0V198s0,0,0,0a1,1,0,0,1,.24,0s0,0,0,0a2.09,2.09,0,0,1,0-.25s0,0,0,0h.27s0,0,0,0V198s0,0,0,0h-.1a0,0,0,0,0,0,0v.1s0,0,0,0h.25s0,0,0,0V198s0,0,0,0a.4.4,0,0,0,.11,0s0,0,0,0a.34.34,0,0,1,0-.1,0,0,0,0,0,0,0h-.11s0,0,0,0v-.11s0,0,0,0H381s0,0,0,0v.1a0,0,0,0,0,0,0h.42s0,0,0,0v-.09s0,0,0,0h-.25a0,0,0,0,1,0,0v-.07c0-.07,0-.06-.05-.06h-.55s0,0,0,0v-.28s0,0,0,0h.1a0,0,0,0,0,0,0v-.1s0,0,0,0h-.09s0,0,0,0Zm1.58.4v-.22s0,0,0,0h-.42s0,0,0,0v.1a0,0,0,0,0,0,0h.26a0,0,0,0,1,0,0,.34.34,0,0,0,0,.1s0,0,0,0h-.25a0,0,0,0,0,0,0v.1a0,0,0,0,0,0,0h.1a0,0,0,0,1,0,0v.11s0,0,0,0h.11a0,0,0,0,1,0,0v.11a0,0,0,0,1,0,0h-.12s0,0,0,0v-.11s0,0,0,0h-.26s0,0,0,0v.11s0,0,0,0h.1s0,0,0,0V198s0,0,0,0h.1s0,0,0,0v-.11s0,0,0,0h.12s0,0,0,0v.26s0,0,0,0h-.25s0,0,0,0v.09a0,0,0,0,0,0,0h.25s0,0,0,0a.34.34,0,0,0,0,.1s0,0,0,0h.1a0,0,0,0,0,0,0,.41.41,0,0,1,0-.11s0,0,0,0h.11s0,0,0,0V198s0,0,0,0h-.1s0,0,0,0v-.1s0,0,0,0h.25a0,0,0,0,0,0,0v-.26a0,0,0,0,1,0,0h.1s0,0,0,0v-.11s0,0,0,0h-.1s0,0,0,0v-.1s0,0,0,0a.21.21,0,0,1-.11,0s0,0,0,0v.11l0,0h-.11s0,0,0,0Zm-.47,1.88v.21s0,0,0,0h.42s0,0,0,0v-.42s0,0,0,0h-.41s0,0,0,0Zm-.87-.23h-.2s0,0,0,0v.26s0,0,0,0h.1a0,0,0,0,0,0,0V199l0,0h.12s0,0,0,0v.12s0,0,0,0h-.11s0,0,0,0v.1s0,0,0,0H381s0,0,0,0v-.42s0,0,0,0Zm-.79.31h-.2a0,0,0,0,0,0,0v.09s0,0,0,0H380s0,0,0,0v.1s0,0,0,0h.11s0,0,0,0v.12a0,0,0,0,0,0,0h.11s0,0,0,0a1.22,1.22,0,0,1,0-.27s0,0,0,0h-.1s0,0,0,0v-.1a0,0,0,0,0,0,0Zm.24-3V196a0,0,0,0,0,0,0h-.09a0,0,0,0,0,0,0v.1s0,0,0,0h-.1a0,0,0,0,0,0,0v.1a0,0,0,0,0,0,0H380s0,0,0,0v.25s0,0,0,0h.09a0,0,0,0,0,0,0v-.1s0,0,0,0h.11s0,0,0,0a.14.14,0,0,1,0-.09,0,0,0,0,0,0,0h-.09s0,0,0,0Zm1.1,2.52h0v-.13s0,0,0,0h-.11s0,0,0,0v.1a0,0,0,0,1,0,0H381a0,0,0,0,0,0,0v.09a0,0,0,0,0,0,0h.1a0,0,0,0,1,0,0v.1s0,0,0,0h.27s0,0,0,0v-.1s0,0,0,0h-.11s0,0,0,0Zm0-1.58h.13s0,0,0,0v-.25a0,0,0,0,0,0,0h-.26s0,0,0,0v.26s0,0,0,0Zm-.47,1.26v.13a0,0,0,0,0,0,0h.1a0,0,0,0,0,0,0v-.1s0,0,0,0h.09a0,0,0,0,0,0,0V198s0,0,0,0H381a0,0,0,0,0,0,0v.1s0,0,0,0h-.1a0,0,0,0,0,0,0Zm1.57,1.26h.13s0,0,0,0v-.11s0,0,0,0h-.09s0,0,0,0v-.1s0,0,0,0h-.1s0,0,0,0v.26s0,0,0,0Zm-1.1-2.05h.13s0,0,0,0v-.26a0,0,0,0,0,0,0,.17.17,0,0,1-.1,0s0,0,0,0v.11s0,0,0,0h-.11s0,0,0,0v.11s0,0,0,0Zm-1.89.47h.14s0,0,0,0v-.26s0,0,0,0h-.11s0,0,0,0v0a.17.17,0,0,1,0,.1s-.06,0-.1,0h0l0,0V198s0,0,0,0Zm1.9.17v.12s0,0,0,0h.1s0,0,0,0v-.11s0,0,0,0h.11s0,0,0,0v-.1s0,0,0,0h-.26s0,0,0,0Zm-1.43-1.58v-.13s0,0,0,0h-.11s0,0,0,0v.26a0,0,0,0,0,0,0h.1s0,0,0,0Zm2.53,1.74h-.14s0,0,0,0v.1s0,0,0,0h.27s0,0,0,0v-.1a0,0,0,0,0,0,0Zm-.79.3h.13s0,0,0,0v-.11l0,0h-.26a0,0,0,0,0,0,0v.1a0,0,0,0,0,0,0Zm-.16.64v-.13s0,0,0,0h-.11s0,0,0,0v.26s0,0,0,0h.1s0,0,0,0Zm1.1-2.21v-.13s0,0,0,0h-.1s0,0,0,0v.27s0,0,0,0h.1a0,0,0,0,0,0,0Zm-1.42.16v-.13s0,0,0,0H381s0,0,0,0v.26s0,0,0,0h.09s0,0,0,0Zm-.63-1.49v-.06s0,0,0,0h-.11a0,0,0,0,0,0,0v.11s0,0,0,0h.12s0,0,0,0Zm-1.17,1.81h-.06s0,0,0,0v.11s0,0,0,0h.11s0,0,0,0v-.11s0,0,0,0Zm2.9,1v-.06s0,0,0,0h-.11l0,0v.11s0,0,0,0h.06C382.26,198.64,382.26,198.64,382.26,198.57ZM381,197s0,0,0-.05,0,0,0,0h-.1s0,0,0,0v.11l0,0H381l0,0Zm-.71,2.13h.05s0,0,0,0a.2.2,0,0,1,0-.11s0,0,0,0h-.11s0,0,0,0v.11a0,0,0,0,0,0,0Zm2.05-.15h-.08v.12a0,0,0,0,0,0,0h.11s0,0,0,0V199s0,0,0,0Zm-2.52-2.05h-.06s0,0,0,0v.11l0,0h.11s0,0,0,0v-.11s0,0,0,0Zm-.55.07v.06s0,0,0,0h.11s0,0,0,0v-.11s0,0,0,0h-.11s0,0,0,0Zm2.2-.46v-.06s0,0,0,0h-.11s0,0,0,0v.11s0,0,0,0h0s.06,0,.07,0S381.47,196.55,381.48,196.53Zm-.78,0v.06s0,0,0,0h.1s0,0,0,0v-.11s0,0,0,0h-.11s0,0,0,0Zm-.87-.55h.05s0,0,0,0v-.11s0,0,0,0h-.11l0,0V196a0,0,0,0,0,0,0Zm.47,0h.05s0,0,0,0a.21.21,0,0,1,0-.11s0,0,0,0h-.1s0,0,0,0V196a0,0,0,0,0,0,0Zm2.36,2.36h0s0,0,0,0a.41.41,0,0,1,0-.11l0,0h-.12a0,0,0,0,0,0,0v.05C382.58,198.33,382.58,198.33,382.66,198.33Zm.08-1s0,0,0-.05a0,0,0,0,0,0,0,.17.17,0,0,1-.1,0,0,0,0,0,0,0,0v.1a0,0,0,0,0,0,0h.1s0,0,0,0S382.74,197.32,382.74,197.31Zm-2-.07h-.07v.11s0,0,0,0h.11s0,0,0,0v-.1s0,0,0,0Zm-.31,2h.05s0,0,0,0v-.1s0,0,0,0h-.11l0,0v.06C380.38,199.27,380.38,199.27,380.46,199.27Zm2.2.47h0s0,0,0,0a.34.34,0,0,1,0-.1s0,0,0,0h-.1s0,0,0,0v.1s0,0,0,0Zm-3.39-2v-.05s0,0,0,0h-.11s0,0,0,0v.11l0,0h.11s0,0,0,0Zm1,1.89v0s0,0,0,0h-.11s0,0,0,0v.1s0,0,0,0h.06C380.22,199.75,380.22,199.74,380.22,199.67Z" transform="translate(-378.12 -195.5)"/><path class="cls-1" d="M379.44,196.05v.52s0,0,0,0h-1s0,0,0,0v-1s0,0,0,0h1.05s0,0,0,0Zm-.56.39h.36s0,0,0,0v-.72s0,0,0,0h-.71s0,0,0,0v.72s0,0,0,0Z" transform="translate(-378.12 -195.5)"/><path class="cls-1" d="M382.35,196.61h-.53s0,0,0,0v-1s0,0,0,0h1.05s0,0,0,0v1s0,0,0,0C382.69,196.6,382.52,196.61,382.35,196.61Zm.39-.56c0-.12,0-.24,0-.36s0,0,0,0H382s0,0,0,0v.72s0,0,0,0h.71s0,0,0,0Z" transform="translate(-378.12 -195.5)"/><path class="cls-1" d="M378.88,200.07h-.52s0,0,0,0v-1s0,0,0,0h1s0,0,0,0v1s0,0,0,0Zm0-.17h.36s0,0,0,0v-.71s0,0,0,0h-.71s0,0,0,0v.72s0,0,0,0Z" transform="translate(-378.12 -195.5)"/><path class="cls-1" d="M378.81,198.49h.28a0,0,0,0,0,0,0v-.11s0,0,0,0h.27s0,0,0,0v.12s0,0,0,0h-.26a0,0,0,0,0,0,0v.1a0,0,0,0,0,0,0h.41s0,0,0,0v.1a0,0,0,0,1,0,0h-.43s0,0,0,0v-.11s0,0,0,0h-.26s0,0,0,0v.1a0,0,0,0,1,0,0h-.11s0,0,0,0a.4.4,0,0,1,0-.11s0,0,0,0h-.1a0,0,0,0,0,0,0v.1s0,0,0,0h-.12a0,0,0,0,1,0,0v-.12s0,0,0,0h.11a0,0,0,0,0,0,0v-.1a0,0,0,0,0,0,0h-.11s0,0,0,0v-.27s0,0,0,0h.11s0,0,0,0V198s0,0,0,0a.24.24,0,0,0,.12,0s0,0,0,0v.12l0,0h-.11s0,0,0,0v.26a0,0,0,0,0,0,0Z" transform="translate(-378.12 -195.5)"/><path class="cls-1" d="M381.56,199.75h.21a0,0,0,0,1,0,0V200a0,0,0,0,1,0,0h-.42a0,0,0,0,1,0,0v-.27a0,0,0,0,1,0,0Z" transform="translate(-378.12 -195.5)"/><path class="cls-1" d="M378.33,197.62v-.21a0,0,0,0,1,0,0h.26s0,0,0,0v.11a0,0,0,0,1,0,0h-.1a0,0,0,0,0,0,0v.25s0,0,0,0h-.1s0,0,0,0Z" transform="translate(-378.12 -195.5)"/><path class="cls-1" d="M382.11,199.9h.13a0,0,0,0,1,0,0V200s0,0,0,0H382a0,0,0,0,1,0,0v-.11s0,0,0,0Z" transform="translate(-378.12 -195.5)"/><path class="cls-1" d="M379.75,200.07h-.13a0,0,0,0,1,0,0v-.11s0,0,0,0h.28s0,0,0,0V200s0,0,0,0Z" transform="translate(-378.12 -195.5)"/><path class="cls-1" d="M380,198.33h.06l0,0v.12s0,0,0,0h-.13s0,0,0,0v-.12s0,0,0,0Z" transform="translate(-378.12 -195.5)"/><path class="cls-1" d="M379.75,198.41v.06s0,0,0,0h-.12s0,0,0,0v-.12l0,0h.12s0,0,0,0Z" transform="translate(-378.12 -195.5)"/><path class="cls-1" d="M382.19,197.71h-.06s0,0,0,0v-.13s0,0,0,0h.12a0,0,0,0,1,0,0v.13a0,0,0,0,1,0,0Z" transform="translate(-378.12 -195.5)"/><path class="cls-1" d="M381.79,199V199l0,0h.13s0,0,0,0v.12s0,0,0,0h-.13s0,0,0,0Z" transform="translate(-378.12 -195.5)"/><path class="cls-1" d="M379.12,196.05v.21s0,0,0,0h-.42s0,0,0,0a2.94,2.94,0,0,0,0-.42,0,0,0,0,1,0,0h.42s0,0,0,0Z" transform="translate(-378.12 -195.5)"/><path class="cls-1" d="M382.11,196.05v-.21s0,0,0,0h.41s0,0,0,0v.42s0,0,0,0h-.41s0,0,0,0Z" transform="translate(-378.12 -195.5)"/><path class="cls-1" d="M378.88,199.75h-.21s0,0,0,0v-.42s0,0,0,0h.43s0,0,0,0v.42s0,0,0,0Z" transform="translate(-378.12 -195.5)"/><text class="cls-2" transform="translate(5.49 4.96)">Zelika Gita S.</text><path class="cls-1" d="M383.89,197.22v-.66h.26a.4.4,0,0,1,.15,0,.18.18,0,0,1,.09.08.21.21,0,0,1,0,.12.28.28,0,0,1,0,.13.16.16,0,0,1-.09.07l-.15,0h-.21l0,0v.24ZM384,197l0-.05h.2a.2.2,0,0,0,.14,0,.13.13,0,0,0,.05-.11.14.14,0,0,0-.05-.11.26.26,0,0,0-.14,0h-.2l0,0Z" transform="translate(-378.12 -195.5)"/><path class="cls-1" d="M384.61,197.22v-.5h.08v.1a.27.27,0,0,1,.07-.08l.12,0v.09h0a.15.15,0,0,0-.15.17v.25Z" transform="translate(-378.12 -195.5)"/><path class="cls-1" d="M385.26,197.23a.32.32,0,0,1-.14,0,.28.28,0,0,1-.09-.1.25.25,0,0,1,0-.13.28.28,0,0,1,0-.13.2.2,0,0,1,.09-.09.29.29,0,0,1,.14,0,.28.28,0,0,1,.13,0,.2.2,0,0,1,.09.09.28.28,0,0,1,0,.13.33.33,0,0,1,0,.14l-.09.09A.28.28,0,0,1,385.26,197.23Zm0-.08.08,0a.17.17,0,0,0,.06-.06.16.16,0,0,0,0-.1.15.15,0,0,0,0-.09.09.09,0,0,0-.06-.06.11.11,0,0,0-.08,0,.13.13,0,0,0-.09,0,.09.09,0,0,0-.06.06.15.15,0,0,0,0,.09.16.16,0,0,0,0,.1.17.17,0,0,0,.06.06Z" transform="translate(-378.12 -195.5)"/><path class="cls-1" d="M385.9,197.23l-.11,0a.16.16,0,0,1-.08-.08.21.21,0,0,1,0-.12v-.29h.09V197a.16.16,0,0,0,0,.11.12.12,0,0,0,.1,0l.08,0s0,0,.06-.06a.22.22,0,0,0,0-.09v-.26h.1v.5h-.09v-.1a.14.14,0,0,1-.07.08A.2.2,0,0,1,385.9,197.23Z" transform="translate(-378.12 -195.5)"/><path class="cls-1" d="M386.58,197.23a.28.28,0,0,1-.13,0,.2.2,0,0,1-.09-.09.32.32,0,0,1,0-.14.28.28,0,0,1,0-.13.2.2,0,0,1,.09-.09.28.28,0,0,1,.13,0,.27.27,0,0,1,.12,0,.15.15,0,0,1,.08.08.32.32,0,0,1,0,.14.33.33,0,0,1,0,.15.3.3,0,0,1-.08.08A.24.24,0,0,1,386.58,197.23Zm0-.08.09,0,.06-.06a.3.3,0,0,0,0-.1.29.29,0,0,0,0-.09.17.17,0,0,0-.06-.06.21.21,0,0,0-.18,0,.17.17,0,0,0-.06.06.29.29,0,0,0,0,.09.3.3,0,0,0,0,.1l.06.06Zm.17.07v-.7h.09v.7Z" transform="translate(-378.12 -195.5)"/><path class="cls-1" d="M387.07,197.22v-.7h.09v.7Z" transform="translate(-378.12 -195.5)"/><path class="cls-1" d="M387.4,197.41h-.07l-.06,0,0-.07,0,0h.11l0-.06,0-.07h0l.19-.46h.09l-.24.55a.19.19,0,0,1-.05.09l-.06,0Zm.12-.17-.23-.52h.1l.19.45Z" transform="translate(-378.12 -195.5)"/><path class="cls-1" d="M388.46,197.23a.28.28,0,0,1-.13,0,.38.38,0,0,1-.09-.09.32.32,0,0,1,0-.14.28.28,0,0,1,0-.13.38.38,0,0,1,.09-.09.28.28,0,0,1,.13,0,.24.24,0,0,1,.12,0,.15.15,0,0,1,.08.08.32.32,0,0,1,0,.14.33.33,0,0,1,0,.15.3.3,0,0,1-.08.08A.21.21,0,0,1,388.46,197.23Zm0-.08.09,0,.06-.06a.3.3,0,0,0,0-.1.29.29,0,0,0,0-.09.17.17,0,0,0-.06-.06.15.15,0,0,0-.09,0,.11.11,0,0,0-.08,0,.09.09,0,0,0-.06.06.16.16,0,0,0,0,.09.19.19,0,0,0,.09.16Zm.17.07v-.7h.09v.7Z" transform="translate(-378.12 -195.5)"/><path class="cls-1" d="M389.17,197.23a.32.32,0,0,1-.14,0l-.09-.09a.23.23,0,0,1,0-.14.28.28,0,0,1,0-.13.38.38,0,0,1,.09-.09.31.31,0,0,1,.13,0,.28.28,0,0,1,.13,0,.2.2,0,0,1,.09.09.29.29,0,0,1,0,.14H389v-.06h.38l0,0a.16.16,0,0,0,0-.09l-.05-.05a.14.14,0,0,0-.09,0,.11.11,0,0,0-.08,0s0,0-.06.05a.29.29,0,0,0,0,.09v0a.29.29,0,0,0,0,.09l.07.06.09,0,.08,0,.07,0,.05.06-.09.06Z" transform="translate(-378.12 -195.5)"/><path class="cls-1" d="M389.72,197.23l-.12,0a.19.19,0,0,1-.09,0l0-.07.08,0h.09l.1,0a.08.08,0,0,0,0,0s0,0,0,0l-.05,0-.06,0h-.07l-.06,0,0,0a.15.15,0,0,1,0-.07.11.11,0,0,1,0-.08.18.18,0,0,1,.07,0,.23.23,0,0,1,.12,0h.1l.08,0,0,.07-.07,0h-.07l-.09,0s0,0,0,.05,0,0,0,0l.05,0,.06,0h.07l.06,0,.05,0a.15.15,0,0,1,0,.07.11.11,0,0,1,0,.08.16.16,0,0,1-.08.05Z" transform="translate(-378.12 -195.5)"/><path class="cls-1" d="M390.14,196.63l0,0a.08.08,0,0,1,0,0s0,0,0,0h.09a.07.07,0,0,1,0,0,.06.06,0,0,1,0,0Zm0,.59v-.5h.09v.5Z" transform="translate(-378.12 -195.5)"/><path class="cls-1" d="M390.61,197.2a.31.31,0,0,1-.13,0l-.09-.08a.3.3,0,0,1,0-.26l.09-.08a.31.31,0,0,1,.13,0l.12,0a.34.34,0,0,1,.09.08.32.32,0,0,1,0,.14.25.25,0,0,1,0,.13.26.26,0,0,1-.09.09Zm0,.21a.32.32,0,0,1-.14,0,.23.23,0,0,1-.1,0l0-.07.09,0h.1c.06,0,.11,0,.13,0a.17.17,0,0,0,0-.13v-.44h.09v.44a.27.27,0,0,1-.07.19A.27.27,0,0,1,390.63,197.41Zm0-.29s.07,0,.09,0a.09.09,0,0,0,.06-.06.11.11,0,0,0,0-.08.16.16,0,0,0,0-.09.1.1,0,0,0-.06-.05s0,0-.09,0a.15.15,0,0,0-.09,0l-.06.05a.29.29,0,0,0,0,.09.19.19,0,0,0,0,.08.17.17,0,0,0,.06.06A.15.15,0,0,0,390.62,197.12Z" transform="translate(-378.12 -195.5)"/><path class="cls-1" d="M391.37,196.72l.11,0a.27.27,0,0,1,.08.07.51.51,0,0,1,0,.13v.28h-.09V197a.16.16,0,0,0,0-.11.13.13,0,0,0-.1,0l-.09,0a.12.12,0,0,0,0,.05.16.16,0,0,0,0,.1v.25h-.09v-.5h.08v.1a.27.27,0,0,1,.07-.08Z" transform="translate(-378.12 -195.5)"/><path class="cls-1" d="M392,197.23a.32.32,0,0,1-.14,0l-.1-.09a.32.32,0,0,1,0-.14.28.28,0,0,1,0-.13.38.38,0,0,1,.09-.09.3.3,0,0,1,.26,0,.2.2,0,0,1,.09.09.29.29,0,0,1,0,.14h-.43v-.06h.38l0,0a.15.15,0,0,0,0-.09.12.12,0,0,0-.05-.05l-.09,0a.11.11,0,0,0-.08,0,.1.1,0,0,0-.06.05.29.29,0,0,0,0,.09v0a.29.29,0,0,0,0,.09l.07.06.09,0,.08,0,.07,0,.05.06-.09.06Z" transform="translate(-378.12 -195.5)"/><path class="cls-1" d="M392.63,197.23a.28.28,0,0,1-.13,0,.2.2,0,0,1-.09-.09.32.32,0,0,1,0-.14.28.28,0,0,1,0-.13.2.2,0,0,1,.09-.09.28.28,0,0,1,.13,0,.2.2,0,0,1,.11,0,.14.14,0,0,1,.09.08.32.32,0,0,1,0,.14.33.33,0,0,1,0,.15.3.3,0,0,1-.08.08A.27.27,0,0,1,392.63,197.23Zm0-.08.08,0a.19.19,0,0,0,.09-.16.16.16,0,0,0,0-.09.09.09,0,0,0-.06-.06.11.11,0,0,0-.08,0,.15.15,0,0,0-.09,0,.17.17,0,0,0-.06.06.29.29,0,0,0,0,.09.3.3,0,0,0,0,.1l.06.06Zm.17.07v-.7h.09v.7Z" transform="translate(-378.12 -195.5)"/><path class="cls-1" d="M393.42,197.22v-.7h.09v.7Zm.26,0a.2.2,0,0,1-.11,0,.2.2,0,0,1-.08-.08.33.33,0,0,1,0-.15.32.32,0,0,1,0-.14s0-.07.08-.08a.2.2,0,0,1,.11,0,.25.25,0,0,1,.13,0,.2.2,0,0,1,.09.09.28.28,0,0,1,0,.13.33.33,0,0,1,0,.14.2.2,0,0,1-.09.09A.25.25,0,0,1,393.68,197.23Zm0-.08.09,0a.17.17,0,0,0,.06-.06.16.16,0,0,0,0-.1.15.15,0,0,0,0-.09.09.09,0,0,0-.06-.06s-.05,0-.09,0a.12.12,0,0,0-.08,0,.09.09,0,0,0-.06.06.15.15,0,0,0,0,.09.16.16,0,0,0,0,.1l.06.06Z" transform="translate(-378.12 -195.5)"/><path class="cls-1" d="M394.13,197.41h-.07l-.06,0,0-.07,0,0h.11l0-.06,0-.07h0l.19-.46h.09l-.24.55a.19.19,0,0,1-.05.09l-.06,0Zm.12-.17-.23-.52h.1l.19.45Z" transform="translate(-378.12 -195.5)"/><path class="cls-1" d="M378.16,201.12v-.35h.15l.08,0a.1.1,0,0,1,.05,0,.13.13,0,0,1,0,.14.1.1,0,0,1-.05,0h-.19l0,0v.13Zm.08-.12,0,0h.16s0,0,0,0a.05.05,0,0,0,0,0l-.05,0h-.11l0,0Zm.14.12-.09-.12h.09l.09.12Z" transform="translate(-378.12 -195.5)"/><path class="cls-1" d="M378.68,201.13l-.08,0s0,0-.06-.05a.19.19,0,0,1,0-.07.14.14,0,0,1,0-.07l0,0,.08,0,.07,0,.05,0a.15.15,0,0,1,0,.07h-.21v0h.17l0,0s0,0,0,0l0,0h-.07a0,0,0,0,0,0,0,.06.06,0,0,0,0,0h0s0,0,0,0,0,0,0,0h.08s0,0,0,0l.05,0-.05,0Z" transform="translate(-378.12 -195.5)"/><path class="cls-1" d="M379,201.13h0l0,0a.09.09,0,0,1,0-.05.08.08,0,0,1,0,0l0,0h.14v0H379v0a0,0,0,0,0,0,0H379s0,0,0,0v0s0,0,0,0Zm.09,0v-.05h0V201a0,0,0,0,0,0,0l0,0h0l0,0,0-.06.06,0H379a.12.12,0,0,1,.09,0,.1.1,0,0,1,0,.09v.15Z" transform="translate(-378.12 -195.5)"/><path class="cls-1" d="M379.34,201.13l-.07,0s0,0-.06-.05a.19.19,0,0,1,0-.07.14.14,0,0,1,0-.07s0,0,.06,0l.07,0,.08,0a.1.1,0,0,1,0,0l-.06,0,0,0h-.07l0,0s0,0,0,0v0l0,0h.07l0,0,.06,0a.1.1,0,0,1,0,.05Z" transform="translate(-378.12 -195.5)"/><path class="cls-1" d="M379.69,200.85h.06l0,0a.15.15,0,0,1,0,.07v.15h-.07V201a.08.08,0,0,0,0,0h-.07l0,0s0,0,0,0v.13h-.08v-.37h.08v.18l0,0,0,0Z" transform="translate(-378.12 -195.5)"/><path class="cls-1" d="M380.41,200.85h0a.08.08,0,0,1,0,0,.15.15,0,0,1,0,.07v.15h-.07V201a.08.08,0,0,0,0,0h-.06l0,0s0,0,0,0v.13h-.08V201a.07.07,0,0,0,0,0h-.07l0,0s0,0,0,0v.13h-.08v-.26h.08v.07l0,0s0,0,0,0l.06,0,.07,0a.09.09,0,0,1,0,.06h0l0,0Z" transform="translate(-378.12 -195.5)"/><path class="cls-1" d="M380.74,201.13l-.08,0a.12.12,0,0,1-.05-.05.19.19,0,0,1,0-.07.14.14,0,0,1,0-.07.12.12,0,0,1,.05,0l.07,0,.07,0,.05,0a.08.08,0,0,1,0,.07h-.22v0h.18l0,0s0,0,0,0l0,0h-.07l0,0v0h0s0,0,0,0l0,0h.08l0,0,0,0,0,0Z" transform="translate(-378.12 -195.5)"/><path class="cls-1" d="M381.28,200.85h.05a.08.08,0,0,1,0,0,.14.14,0,0,1,0,.07v.15h-.08V201a.08.08,0,0,0,0,0h-.07a0,0,0,0,0,0,0s0,0,0,0v.13h-.08v-.37h.08v.18l0,0s0,0,0,0Z" transform="translate(-378.12 -195.5)"/><path class="cls-1" d="M381.61,201.13l-.08,0a.12.12,0,0,1,0-.05.19.19,0,0,1,0-.07.14.14,0,0,1,0-.07l0,0,.07,0,.07,0,.05,0a.08.08,0,0,1,0,.07h-.22v0h.18l0,0s0,0,0,0l0,0h-.07l0,0v0h0s0,0,0,0l0,0h.08l0,0,0,0,0,0Z" transform="translate(-378.12 -195.5)"/><path class="cls-1" d="M381.82,201.12v-.26h.07v0a.08.08,0,0,1,0,0l.06,0v.07h0l-.06,0s0,0,0,.06v.12Z" transform="translate(-378.12 -195.5)"/><path class="cls-1" d="M382.19,201.13l-.08,0a.12.12,0,0,1-.05-.05.1.1,0,0,1,0-.07.08.08,0,0,1,0-.07.08.08,0,0,1,.05,0l.07,0,.07,0,.05,0a.14.14,0,0,1,0,.07h-.22v0h.18l0,0s0,0,0,0l0,0h-.06s0,0,0,0v0h0s0,0,0,0l0,0h.08l0,0,0,0a.1.1,0,0,1-.05,0Z" transform="translate(-378.12 -195.5)"/><path class="cls-1" d="M378.12,201.52v-.06h.19v.06Zm0,.2v-.28a.09.09,0,0,1,0-.07s0,0,.08,0h.06l0,.06h-.06s0,0,0,0v.27Z" transform="translate(-378.12 -195.5)"/><path class="cls-1" d="M378.5,201.72a.11.11,0,0,1-.08,0,.1.1,0,0,1-.05,0,.24.24,0,0,1,0-.08.19.19,0,0,1,0-.07l.05,0h.15a.12.12,0,0,1,.05,0,.1.1,0,0,1,0,.07.12.12,0,0,1,0,.08.07.07,0,0,1-.05,0A.08.08,0,0,1,378.5,201.72Zm0-.06h0l0,0s0,0,0,0,0,0,0,0l0,0h-.07l0,0a.08.08,0,0,0,0,0s0,0,0,0l0,0Z" transform="translate(-378.12 -195.5)"/><path class="cls-1" d="M378.72,201.72v-.27h.07v.05l0,0h.07v.07h-.07a.07.07,0,0,0,0,.06v.13Z" transform="translate(-378.12 -195.5)"/><path class="cls-1" d="M379.3,201.72h-.08l-.06,0a.1.1,0,0,1,0,0,.22.22,0,0,1,0-.08.17.17,0,0,1,0-.07l0-.06.06,0,.08,0,.08,0,.06.05-.05,0,0,0h-.09l0,0a.08.08,0,0,0,0,0,.06.06,0,0,0,0,0,.07.07,0,0,0,0,.05l0,0,0,0h.09l0,0,.05,0-.06.05Z" transform="translate(-378.12 -195.5)"/><path class="cls-1" d="M379.64,201.72a.12.12,0,0,1-.08,0,.1.1,0,0,1-.05,0,.24.24,0,0,1,0-.08.19.19,0,0,1,0-.07l.05,0h.15l.06,0a.19.19,0,0,1,0,.07.24.24,0,0,1,0,.08.13.13,0,0,1-.06,0A.08.08,0,0,1,379.64,201.72Zm0-.06h0l0,0s0,0,0,0,0,0,0,0l0,0h-.07l0,0a.08.08,0,0,0,0,0s0,0,0,0l0,0Z" transform="translate(-378.12 -195.5)"/><path class="cls-1" d="M379.86,201.72v-.37h.08v.37Z" transform="translate(-378.12 -195.5)"/><path class="cls-1" d="M380,201.72v-.37h.07v.37Z" transform="translate(-378.12 -195.5)"/><path class="cls-1" d="M380.29,201.72h-.05l0,0a0,0,0,0,1,0-.08l0,0h.14v.05h-.1s0,0,0,0,0,0,0,0h.07s0,0,0,0v0s0,0,0,0Zm.08,0v-.16s0,0,0,0h-.09l0,0,0-.05.06,0h.06a.12.12,0,0,1,.09,0s0,0,0,.09v.15Z" transform="translate(-378.12 -195.5)"/><path class="cls-1" d="M380.54,201.72v-.37h.08v.37Zm.16,0h-.06a.1.1,0,0,1,0-.05.17.17,0,0,1,0-.08.15.15,0,0,1,0-.07.1.1,0,0,1,0,0h.13l.05,0a.17.17,0,0,1,0,.07.19.19,0,0,1,0,.08l-.05,0A.08.08,0,0,1,380.7,201.72Zm0-.06h0l0,0v-.08l0,0h-.07l0,0a.08.08,0,0,0,0,0s0,0,0,0l0,0Z" transform="translate(-378.12 -195.5)"/><path class="cls-1" d="M381,201.72a.11.11,0,0,1-.08,0,.1.1,0,0,1,0,0,.24.24,0,0,1,0-.08.19.19,0,0,1,0-.07l0,0h.15l.05,0a.1.1,0,0,1,0,.07.12.12,0,0,1,0,.08.1.1,0,0,1-.05,0A.1.1,0,0,1,381,201.72Zm0-.06h0l0,0v-.08l0,0H381l0,0a.08.08,0,0,0,0,0s0,0,0,0l0,0Z" transform="translate(-378.12 -195.5)"/><path class="cls-1" d="M381.26,201.72v-.27h.07v.05s0,0,0,0h.06v.07h-.06a.07.07,0,0,0,0,.06v.13Z" transform="translate(-378.12 -195.5)"/><path class="cls-1" d="M381.58,201.72h-.05l0,0s0,0,0,0,0,0,0,0l0,0h.14v.05h-.1s0,0,0,0,0,0,0,0h.07l0,0v0l0,0Zm.08,0v-.16a.05.05,0,0,0,0,0h-.09l0,0,0-.05.05,0h.07a.12.12,0,0,1,.09,0,.1.1,0,0,1,0,.09v.15Z" transform="translate(-378.12 -195.5)"/><path class="cls-1" d="M381.8,201.52v-.06H382v.06Zm.14.2-.07,0a.09.09,0,0,1,0-.07v-.24h.08v.23s0,0,0,0H382l0,0,0,0Z" transform="translate(-378.12 -195.5)"/><path class="cls-1" d="M382.11,201.41h0s0,0,0,0v0h.07l0,0,0,0Zm0,.31v-.27h.08v.27Z" transform="translate(-378.12 -195.5)"/><path class="cls-1" d="M382.37,201.72a.08.08,0,0,1-.07,0,.13.13,0,0,1-.06,0,.22.22,0,0,1,0-.08.17.17,0,0,1,0-.07l.06,0h.15l.05,0a.19.19,0,0,1,0,.07.24.24,0,0,1,0,.08.1.1,0,0,1-.05,0A.12.12,0,0,1,382.37,201.72Zm0-.06h0l0,0s0,0,0,0a.08.08,0,0,0,0,0l0,0h-.07l0,0s0,0,0,0,0,0,0,0l0,0Z" transform="translate(-378.12 -195.5)"/><path class="cls-1" d="M382.76,201.45h.05l0,0a.14.14,0,0,1,0,.06v.16h-.08v-.14a.43.43,0,0,0,0-.05l0,0h0l0,0a.09.09,0,0,0,0,.05v.13h-.08v-.27h.08v.07l0,0a.1.1,0,0,1,.05,0Z" transform="translate(-378.12 -195.5)"/><path class="cls-1" d="M383,201.72h0a0,0,0,0,1,0,0s0,0,0,0l0,0,0,0s0,0,0,0l0,0Zm0-.12,0-.23H383v.23Z" transform="translate(-378.12 -195.5)"/><path class="cls-1" d="M401.33,202.07l0,0a.23.23,0,0,0,.09-.08s0-.05,0-.08a.07.07,0,0,0-.07,0l-.12,0h0a.31.31,0,0,0,.05-.12v0c0-.07,0-.09-.1-.07a.47.47,0,0,0-.1.1l0,0a.22.22,0,0,0,0-.09.14.14,0,0,0,0-.07s0,0-.06,0h0a.1.1,0,0,0-.07.07.25.25,0,0,0,0,.12l-.07-.07-.05,0a.06.06,0,0,0-.08,0s0,0,0,.07a.35.35,0,0,0,.06.14l-.1,0a.11.11,0,0,0-.08,0,.06.06,0,0,0,0,.09.2.2,0,0,0,.08.08l.05,0c-.07,0-.14,0-.18.11v0a.17.17,0,0,0,.13.07h.08l-.06.06,0,.06a.08.08,0,0,0,0,.08.11.11,0,0,0,.08,0,.45.45,0,0,0,.12-.06h0v.08a.25.25,0,0,0,0,.08.08.08,0,0,0,.05,0h0a.24.24,0,0,0,.13-.16c0,.07,0,.14.13.16h0a.09.09,0,0,0,.06-.09.62.62,0,0,0,0-.13l.08.06h.06c.06,0,.1,0,.08-.09a.33.33,0,0,0-.06-.1s0,0,0,0a.27.27,0,0,0,.09,0l.08,0,0,0v0A.22.22,0,0,0,401.33,202.07Zm.06-.17h0s0,0,0,0a.34.34,0,0,1-.18.11h-.05s0,0-.05,0a.05.05,0,0,1,0,0A.35.35,0,0,1,401.39,201.9Zm-.33,0a.35.35,0,0,1,.08-.16.13.13,0,0,1,.07-.06s0,0,0,0a.51.51,0,0,1-.07.15.27.27,0,0,1-.08.07s0,0,0,0S401.06,202,401.06,201.93Zm-.11-.28s0,0,0,0a0,0,0,0,1,0,0,.3.3,0,0,1,0,.26s0,0,0,0a0,0,0,0,1,0,0,.28.28,0,0,1,0-.13A.31.31,0,0,1,401,201.65Zm-.25.11v0s0,0,0,0a.34.34,0,0,1,.09.08.41.41,0,0,1,.07.15s0,0,0,0A.31.31,0,0,1,400.7,201.76Zm-.15.19s0,0,0,0h0a.33.33,0,0,1,.23.1l0,0s0,0-.06,0A.31.31,0,0,1,400.55,202Zm.05.27h-.08s0,0,0-.05a.26.26,0,0,1,.12,0,.28.28,0,0,1,.13,0h0s0,0,0,0a.22.22,0,0,1-.12.05Zm0,.22h0s0,0,0,0v0a.31.31,0,0,1,.2-.17h0a0,0,0,0,1,0,0A.32.32,0,0,1,400.63,202.44Zm.24.13,0,0,0,0v-.05a.36.36,0,0,1,.06-.2.09.09,0,0,1,.05,0s0,0,0,.05A.35.35,0,0,1,400.87,202.57Zm.26,0s0,0,0,0a.33.33,0,0,1-.06-.1.29.29,0,0,1,0-.16h0s0,0,0,0a.27.27,0,0,1,.08.16v.07S401.14,202.55,401.13,202.57Zm.21-.17s0,0,0,0h0a.31.31,0,0,1-.18-.16s0,0,0,0,0,0,0,0A.32.32,0,0,1,401.34,202.4Zm.12-.22s0,0,0,0a.29.29,0,0,1-.24,0,0,0,0,0,1,0,0s0,0,0,0h.07a.48.48,0,0,1,.17.05S401.46,202.16,401.46,202.18Z" transform="translate(-378.12 -195.5)"/><path class="cls-1" d="M402.78,202.07l0,0a.25.25,0,0,0,.1-.08.08.08,0,0,0,0-.08.09.09,0,0,0-.08,0l-.12,0h0a.61.61,0,0,0,.05-.12v0c0-.07-.05-.09-.11-.07a.47.47,0,0,0-.1.1v0s0-.07,0-.09l0-.07a.07.07,0,0,0-.05,0h0a.1.1,0,0,0-.07.07.5.5,0,0,0,0,.12.46.46,0,0,0-.07-.07l-.05,0a.06.06,0,0,0-.08,0,.06.06,0,0,0,0,.07.24.24,0,0,0,.05.14l-.09,0a.11.11,0,0,0-.08,0,.06.06,0,0,0-.05.09.18.18,0,0,0,.09.08s0,0,.05,0-.15,0-.18.11v0c0,.05.08.06.13.07h.08l-.06.06,0,.06s0,.05,0,.08a.11.11,0,0,0,.08,0,.39.39,0,0,0,.11-.06h0v.08s0,.05,0,.08a.1.1,0,0,0,.06,0h0c.06,0,.08-.06.12-.16,0,.07.05.14.13.16h0c.05,0,.06,0,.07-.09a.69.69,0,0,0,0-.13l.09.06h.05c.07,0,.1,0,.08-.09a.21.21,0,0,0-.06-.1s0,0,0,0a.33.33,0,0,0,.1,0l.08,0,0,0v0C402.93,202.11,402.88,202.08,402.78,202.07Zm.06-.17h0s0,0,0,0a.31.31,0,0,1-.18.11h-.05s0,0,0,0,0,0,0,0A.33.33,0,0,1,402.84,201.9Zm-.32,0a.26.26,0,0,1,.07-.16.13.13,0,0,1,.07-.06s0,0,0,0a.26.26,0,0,1-.07.15.23.23,0,0,1-.07.07s0,0,0,0S402.51,202,402.52,201.93Zm-.12-.28s0,0,0,0l0,0a.39.39,0,0,1,0,.26s0,0,0,0,0,0,0,0a.27.27,0,0,1,0-.13A.3.3,0,0,1,402.4,201.65Zm-.24.11a.06.06,0,0,1,0,0s0,0,0,0a.24.24,0,0,1,.09.08.23.23,0,0,1,.07.15s0,0,0,0A.3.3,0,0,1,402.16,201.76ZM402,202a.05.05,0,0,1,0,0h0a.33.33,0,0,1,.23.1s0,0,0,0,0,0,0,0A.33.33,0,0,1,402,202Zm.06.27H402s0,0,0-.05a.29.29,0,0,1,.13,0,.28.28,0,0,1,.13,0h0a0,0,0,0,1,0,0,.31.31,0,0,1-.12.05Zm0,.22h0s0,0,0,0v0a.33.33,0,0,1,.21-.17h0s0,0,0,0A.32.32,0,0,1,402.09,202.44Zm.24.13a.05.05,0,0,1,0,0,0,0,0,0,1,0,0,.09.09,0,0,1,0-.05.31.31,0,0,1,.07-.2s0,0,0,0,0,0,0,.05A.34.34,0,0,1,402.33,202.57Zm.25,0s0,0,0,0a.21.21,0,0,1-.06-.1.22.22,0,0,1,0-.16h0s0,0,.05,0a.33.33,0,0,1,.07.16.15.15,0,0,1,0,.07A.11.11,0,0,1,402.58,202.57Zm.22-.17s0,0,0,0h0a.31.31,0,0,1-.18-.16s0,0,0,0,0,0,.05,0A.35.35,0,0,1,402.8,202.4Zm.11-.22s0,0,0,0a.3.3,0,0,1-.24,0,0,0,0,0,1,0,0s0,0,0,0h.08a.49.49,0,0,1,.16.05S402.92,202.16,402.91,202.18Z" transform="translate(-378.12 -195.5)"/><path class="cls-1" d="M404.24,202.07v0a.2.2,0,0,0,.1-.08s0-.05,0-.08a.07.07,0,0,0-.07,0l-.12,0h0a.31.31,0,0,0,.05-.12v0c0-.07,0-.09-.1-.07a.32.32,0,0,0-.1.1l0,0a.22.22,0,0,0,0-.09.09.09,0,0,0,0-.07.07.07,0,0,0-.05,0h0a.1.1,0,0,0-.07.07.53.53,0,0,0,0,.12l-.06-.07-.05,0a.06.06,0,0,0-.08,0s0,0,0,.07a.35.35,0,0,0,.06.14l-.1,0a.11.11,0,0,0-.08,0,.06.06,0,0,0,0,.09.2.2,0,0,0,.08.08l0,0c-.07,0-.14,0-.18.11v0a.17.17,0,0,0,.13.07h.08l-.06.06,0,.06a.08.08,0,0,0,0,.08.11.11,0,0,0,.08,0l.12-.06h0v.08a.25.25,0,0,0,0,.08.08.08,0,0,0,.05,0h0a.21.21,0,0,0,.12-.16c0,.07.06.14.13.16h0a.09.09,0,0,0,.06-.09.62.62,0,0,0,0-.13l.08.06h.06c.06,0,.1,0,.08-.09a.33.33,0,0,0-.06-.1l0,0a.27.27,0,0,0,.09,0l.08,0,0,0v0A.22.22,0,0,0,404.24,202.07Zm.06-.17h0s0,0,0,0a.34.34,0,0,1-.18.11h-.05s0,0,0,0a.05.05,0,0,1,0,0A.35.35,0,0,1,404.3,201.9Zm-.33,0a.35.35,0,0,1,.08-.16.13.13,0,0,1,.07-.06s0,0,0,0a.51.51,0,0,1-.07.15.27.27,0,0,1-.08.07s0,0,0,0S404,202,404,201.93Zm-.11-.28s0,0,0,0a0,0,0,0,1,0,0,.3.3,0,0,1,0,.26s0,0,0,0a0,0,0,0,1,0,0,.28.28,0,0,1,0-.13A.31.31,0,0,1,403.86,201.65Zm-.25.11v0s0,0,0,0a.3.3,0,0,1,.08.08.31.31,0,0,1,.08.15s0,0,0,0A.31.31,0,0,1,403.61,201.76Zm-.15.19s0,0,0,0h0a.34.34,0,0,1,.23.1.08.08,0,0,1,0,0l-.06,0A.31.31,0,0,1,403.46,202Zm.05.27h-.09s0,0,0-.05a.26.26,0,0,1,.12,0,.28.28,0,0,1,.13,0h0s0,0,0,0a.26.26,0,0,1-.12.05Zm0,.22h0s0,0,0,0v0a.31.31,0,0,1,.2-.17h0a0,0,0,0,1,0,0A.32.32,0,0,1,403.54,202.44Zm.24.13,0,0s0,0,0,0v-.05a.36.36,0,0,1,.06-.2s0,0,0,0,0,0,0,.05A.35.35,0,0,1,403.78,202.57Zm.26,0s0,0,0,0a.21.21,0,0,1-.06-.1.41.41,0,0,1,0-.16h0s0,0,0,0a.48.48,0,0,1,.08.16v.12Zm.21-.17s0,0,0,0h0a.31.31,0,0,1-.18-.16s0,0,0,0,0,0,0,0A.32.32,0,0,1,404.25,202.4Zm.12-.22a.05.05,0,0,1,0,0,.29.29,0,0,1-.24,0s0,0,0,0,0,0,0,0h.07a.48.48,0,0,1,.17.05S404.37,202.16,404.37,202.18Z" transform="translate(-378.12 -195.5)"/><path class="cls-1" d="M405.69,202.07l0,0a.25.25,0,0,0,.1-.08.08.08,0,0,0,0-.08.09.09,0,0,0-.08,0l-.12,0h0a.28.28,0,0,0,0-.12,0,0,0,0,0,0,0c0-.07-.05-.09-.11-.07a.47.47,0,0,0-.1.1v0s0-.07,0-.09l0-.07a.07.07,0,0,0,0,0h0a.1.1,0,0,0-.07.07.5.5,0,0,0,0,.12l-.07-.07-.05,0a.06.06,0,0,0-.08,0,.06.06,0,0,0,0,.07.24.24,0,0,0,.05.14l-.09,0a.11.11,0,0,0-.08,0,.06.06,0,0,0,0,.09.18.18,0,0,0,.09.08s0,0,.05,0-.15,0-.18.11v0c0,.05.08.06.13.07H405l-.06.06,0,.06s0,.05,0,.08a.11.11,0,0,0,.08,0,.39.39,0,0,0,.11-.06h0v.08s0,.05,0,.08l.05,0h0c.06,0,.08-.06.12-.16,0,.07.05.14.13.16h0s.06,0,.06-.09a.3.3,0,0,0,0-.13l.09.06h.05c.07,0,.1,0,.08-.09a.21.21,0,0,0-.06-.1s0,0,0,0a.33.33,0,0,0,.1,0l.07,0s0,0,0,0v0C405.84,202.11,405.79,202.08,405.69,202.07Zm.06-.17h0s0,0,0,0a.31.31,0,0,1-.18.11h0s0,0,0,0,0,0,0,0A.33.33,0,0,1,405.75,201.9Zm-.33,0a.35.35,0,0,1,.08-.16.13.13,0,0,1,.07-.06s0,0,0,0a.26.26,0,0,1-.07.15l-.07.07s0,0,0,0S405.42,202,405.42,201.93Zm-.11-.28s0,0,0,0,0,0,0,0a.33.33,0,0,1,0,.26s0,0,0,0,0,0,0,0a.5.5,0,0,1,0-.13A.61.61,0,0,1,405.31,201.65Zm-.24.11a.06.06,0,0,1,0,0s0,0,0,0a.24.24,0,0,1,.09.08.23.23,0,0,1,.07.15s0,0,0,0A.27.27,0,0,1,405.07,201.76Zm-.16.19a.05.05,0,0,1,0,0h0a.33.33,0,0,1,.23.1l0,0s0,0-.05,0A.33.33,0,0,1,404.91,202Zm0,.27h-.08s0,0,0-.05a.29.29,0,0,1,.13,0,.28.28,0,0,1,.13,0h0a0,0,0,0,1,0,0,.22.22,0,0,1-.11.05Zm0,.22h0s0,0,0,0v0a.33.33,0,0,1,.2-.17h0s0,0,0,0A.37.37,0,0,1,405,202.44Zm.23.13s0,0,0,0l0,0v-.05a.31.31,0,0,1,.07-.2s0,0,0,0,0,0,0,.05A.35.35,0,0,1,405.23,202.57Zm.26,0s0,0,0,0a.36.36,0,0,1-.07-.1.29.29,0,0,1,0-.16h0s0,0,.05,0a.33.33,0,0,1,.07.16.15.15,0,0,1,0,.07A.11.11,0,0,1,405.49,202.57Zm.22-.17s0,0,0,0h0a.31.31,0,0,1-.18-.16s0,0,0,0,0,0,0,0A.35.35,0,0,1,405.71,202.4Zm.11-.22s0,0,0,0a.3.3,0,0,1-.24,0,0,0,0,0,1,0,0s0,0,0,0h.07a.48.48,0,0,1,.17.05S405.83,202.16,405.82,202.18Z" transform="translate(-378.12 -195.5)"/><line class="cls-3" x1="0.08" y1="6.7" x2="22.08" y2="6.7"/></svg>